<svg xmlns="http://www.w3.org/2000/svg" width="517" height="517" viewBox="0 0 517 517" fill="none"><path d="M441.22 338.938C439.691 338.915 438.173 339.194 436.755 339.758L386.181 311.383L385.411 312.716L435.141 340.631C434.725 340.906 434.379 341.272 434.132 341.701C433.885 342.131 433.742 342.611 433.715 343.104C433.715 345.457 436.971 347.323 441.186 347.323C445.401 347.323 448.617 345.457 448.617 343.104C448.617 340.751 445.388 338.938 441.22 338.938ZM441.22 345.817C437.714 345.817 435.296 344.41 435.296 343.151C435.296 342.571 435.796 341.991 436.647 341.498C437.246 341.196 437.881 340.972 438.538 340.831C439.412 340.625 440.308 340.522 441.206 340.524C444.672 340.524 447.09 341.931 447.09 343.191C447.09 344.45 444.672 345.817 441.22 345.817Z" fill="#F3F3F3"></path><path d="M273.471 396.415L272.711 397.752L327.537 428.952L328.297 427.615L273.471 396.415Z" fill="#F3F3F3"></path><path d="M261.494 403.337L260.733 404.674L315.559 435.874L316.32 434.537L261.494 403.337Z" fill="#F3F3F3"></path><path d="M108.002 405.879L199.513 351.63L198.724 350.292L106.249 405.136C105.363 404.848 104.439 404.693 103.508 404.675V383.72L165.622 347.423L164.865 346.085L101.988 382.817V404.661C98.2379 404.842 95.4102 406.594 95.4102 408.801C95.4102 411.169 98.636 413.008 102.745 413.008C106.853 413.008 110.086 411.169 110.086 408.801C110.073 407.684 109.283 406.614 108.002 405.879ZM102.731 411.49C99.3263 411.49 96.9169 410.079 96.9169 408.815C96.9169 407.551 98.9547 406.36 101.975 406.18C102.226 406.151 102.479 406.14 102.731 406.146C102.986 406.14 103.241 406.151 103.495 406.18C103.771 406.179 104.047 406.208 104.318 406.267C105.042 406.339 105.75 406.526 106.415 406.822C107.743 407.31 108.553 408.079 108.553 408.828C108.579 410.079 106.176 411.49 102.731 411.49Z" fill="#F3F3F3"></path><path d="M185.748 426.188L235.453 398.229L234.71 396.896L184.169 425.281C182.753 424.717 181.239 424.436 179.713 424.454C175.528 424.454 172.247 426.321 172.247 428.648C172.247 430.976 175.528 432.836 179.713 432.836C183.899 432.836 187.139 431.002 187.139 428.648C187.113 428.161 186.974 427.685 186.733 427.258C186.492 426.832 186.155 426.466 185.748 426.188ZM179.713 431.329C176.243 431.329 173.793 429.949 173.793 428.662C173.793 427.375 176.243 425.995 179.713 425.995C180.609 425.996 181.501 426.098 182.373 426.301C183.031 426.457 183.666 426.694 184.263 427.008C185.127 427.495 185.613 428.075 185.613 428.662C185.613 429.949 183.21 431.329 179.713 431.329V431.329Z" fill="#F3F3F3"></path><path d="M181.323 456.319V445.031L138.638 420.407V396.549L263.957 323.871L263.19 322.537L137.138 395.642V421.273L179.789 445.897V456.266C175.934 456.392 172.966 458.199 172.966 460.426C172.966 461.533 173.7 462.507 174.867 463.24L123.319 493.385C121.907 492.842 120.402 492.582 118.89 492.618C114.762 492.618 111.521 494.485 111.521 496.806C111.521 499.126 114.762 501 118.89 501C123.019 501 126.267 499.166 126.267 496.806C126.24 496.312 126.1 495.832 125.855 495.403C125.611 494.973 125.27 494.607 124.859 494.332L176.521 464.04C177.751 464.457 179.043 464.662 180.342 464.647C184.471 464.647 187.719 462.787 187.719 460.426C187.719 458.306 184.964 456.566 181.323 456.319ZM118.89 499.493C115.462 499.493 113.048 498.113 113.048 496.826C113.048 495.539 115.462 494.159 118.89 494.159C119.777 494.159 120.661 494.262 121.525 494.465C122.174 494.622 122.802 494.859 123.392 495.172C124.246 495.659 124.726 496.239 124.726 496.819C124.733 498.113 122.352 499.493 118.89 499.493ZM180.342 463.14C179.696 463.144 179.05 463.084 178.415 462.96C177.72 462.879 177.043 462.68 176.414 462.373C175.22 461.853 174.52 461.153 174.52 460.447C174.52 459.253 176.688 457.939 179.809 457.819C179.993 457.803 180.178 457.803 180.362 457.819C180.69 457.809 181.019 457.829 181.343 457.879C184.251 458.099 186.205 459.353 186.205 460.48C186.185 461.733 183.797 463.14 180.342 463.14Z" fill="#F3F3F3"></path><path d="M63.444 372.337L188.359 299.094L187.595 297.75L61.9482 371.423V397.266L104.449 422.068V436.656L88.2343 446.238C86.8275 445.689 85.3277 445.424 83.82 445.458C79.7049 445.458 76.4675 447.34 76.4675 449.685C76.4675 452.03 79.7049 453.905 83.82 453.905C87.9351 453.905 91.1727 452.057 91.1727 449.685C91.1442 449.187 91.0021 448.702 90.7577 448.268C90.5132 447.835 90.173 447.464 89.7634 447.185L105.991 437.583V421.221L63.444 396.392V372.337ZM83.82 452.366C80.4029 452.366 77.9964 450.982 77.9964 449.678C77.9964 448.375 80.4029 446.99 83.82 446.99C84.7022 446.987 85.5817 447.091 86.4394 447.299C87.0866 447.439 87.7124 447.665 88.3007 447.971C89.1583 448.469 89.6303 449.053 89.6303 449.638C89.6436 451.022 87.2636 452.366 83.82 452.366Z" fill="#F3F3F3"></path><path d="M69.8756 182.839L162.769 237.779L163.571 236.426L71.4788 181.952C71.9462 181.684 72.3388 181.301 72.6201 180.84C72.9015 180.379 73.0627 179.854 73.0889 179.314C73.0889 176.952 69.815 175.058 65.6385 175.058C61.4619 175.058 58.2285 176.952 58.2285 179.314C58.2285 181.485 60.9769 183.258 64.6213 183.502V204.828L128.441 241.981L129.209 240.628L66.1707 203.908V183.515C67.4363 183.518 68.6919 183.289 69.8756 182.839ZM65.6385 182.034C65.2871 182.044 64.9354 182.024 64.5876 181.973C61.6842 181.756 59.7374 180.511 59.7374 179.334C59.7374 178.157 62.149 176.627 65.6385 176.627C69.1279 176.627 71.5462 178.055 71.5462 179.334C71.5462 179.956 70.9871 180.606 69.9968 181.1C69.3824 181.415 68.7272 181.643 68.0501 181.776C67.422 181.917 66.7805 181.99 66.1369 181.993C65.9615 182.026 65.7831 182.039 65.6047 182.034H65.6385Z" fill="#F3F3F3"></path><path d="M21.1122 212.647V188.745L64.1252 164.115V152.454C67.764 152.18 70.4477 150.452 70.4477 148.324C70.4477 145.969 67.1789 144.135 63.0155 144.135C61.6083 144.12 60.2089 144.346 58.8789 144.802L30.7841 128.438C31.1984 128.161 31.5423 127.793 31.7886 127.363C32.0349 126.932 32.1769 126.451 32.2034 125.956C32.2034 123.601 28.9278 121.767 24.7644 121.767C20.6009 121.767 17.332 123.601 17.332 125.956C17.332 128.311 20.6009 130.152 24.7644 130.152C26.2897 130.186 27.8072 129.923 29.2305 129.378L57.2445 145.629C56.767 145.904 56.3651 146.291 56.0742 146.757C55.7833 147.222 55.6123 147.751 55.5765 148.298C55.5765 150.559 58.63 152.367 62.5782 152.46V163.174L19.5719 187.804V213.454L146.694 286.597L147.461 285.262L21.1122 212.647ZM24.7644 128.651C21.3072 128.651 18.8723 127.237 18.8723 125.983C18.8723 124.729 21.3072 123.314 24.7644 123.314C28.2215 123.314 30.6564 124.695 30.6564 125.983C30.6564 126.57 30.1654 127.15 29.3112 127.637C28.7156 127.95 28.0829 128.188 27.4278 128.344C26.5593 128.547 25.6701 128.65 24.7778 128.651H24.7644ZM57.1167 148.351C57.1167 147.684 57.7355 147.064 58.7848 146.543C59.3952 146.237 60.0517 146.032 60.7286 145.936C61.4792 145.77 62.2464 145.687 63.0155 145.689C66.4996 145.689 68.9075 147.097 68.9075 148.358C68.9075 149.492 66.9905 150.713 64.1252 150.959C63.7553 150.959 63.3854 151.019 63.0155 151.019C62.8703 151.036 62.7235 151.036 62.5782 151.019C59.343 150.893 57.1167 149.545 57.1167 148.351Z" fill="#F3F3F3"></path><path d="M108.613 150.999C109.029 150.713 109.374 150.328 109.621 149.877C109.868 149.425 110.01 148.92 110.035 148.401C110.035 146.003 106.82 144.073 102.726 144.073C98.6314 144.073 95.4102 146.003 95.4102 148.401C95.4102 150.799 98.6248 152.763 102.726 152.763C104.221 152.791 105.706 152.502 107.092 151.916L156.616 181.253L157.376 179.875L108.613 150.999ZM105.306 150.868C104.452 151.082 103.577 151.189 102.7 151.185C99.2996 151.185 96.9051 149.731 96.9051 148.429C96.9051 147.126 99.2996 145.672 102.7 145.672C106.099 145.672 108.494 147.126 108.494 148.429C108.494 149.035 108.011 149.662 107.131 150.172C106.568 150.496 105.962 150.73 105.332 150.868H105.306Z" fill="#F3F3F3"></path><path d="M493.261 218.058C491.574 218.017 489.901 218.374 488.379 219.099L450.801 197.509V179.717L463.003 172.674L462.233 171.339L449.267 178.816V198.384L486.932 220.034C486.608 220.306 486.344 220.644 486.16 221.025C485.975 221.406 485.873 221.821 485.861 222.244C485.861 224.387 488.5 226.069 492.096 226.376V232.044L405.24 282.782L406.01 284.117L493.63 232.945V226.423C497.594 226.329 500.668 224.554 500.668 222.257C500.668 219.96 497.407 218.058 493.261 218.058ZM493.63 224.887C493.507 224.904 493.383 224.904 493.261 224.887C492.866 224.887 492.464 224.887 492.096 224.827C489.27 224.547 487.408 223.325 487.408 222.224C487.449 221.932 487.556 221.654 487.721 221.41C487.886 221.166 488.104 220.963 488.359 220.815C488.87 220.459 489.442 220.199 490.047 220.047C491.089 219.713 492.179 219.548 493.274 219.56C496.717 219.56 499.141 220.969 499.141 222.23C499.141 223.492 496.884 224.801 493.63 224.887Z" fill="#F3F3F3"></path><path d="M374.227 124.245C370.048 124.245 366.767 126.109 366.767 128.458C366.793 128.958 366.938 129.445 367.19 129.88C367.442 130.315 367.795 130.685 368.219 130.961L318.487 158.854L319.264 160.186L369.771 131.853C371.186 132.416 372.701 132.696 374.227 132.678C378.412 132.678 381.693 130.814 381.693 128.491C381.693 126.169 378.392 124.245 374.227 124.245ZM374.227 131.114C373.34 131.115 372.456 131.012 371.594 130.808C370.927 130.686 370.287 130.45 369.704 130.109C368.806 129.623 368.313 129.037 368.313 128.458C368.313 127.18 370.757 125.796 374.227 125.796C377.696 125.796 380.14 127.2 380.14 128.458C380.14 129.716 377.717 131.127 374.227 131.127V131.114Z" fill="#F3F3F3"></path><path d="M391.611 181.253C387.441 181.253 384.172 179.35 384.172 176.916C384.172 174.481 387.441 172.578 391.611 172.578C395.781 172.578 399.044 174.488 399.044 176.916C399.044 179.343 395.781 181.253 391.611 181.253ZM391.611 174.164C388.133 174.164 385.719 175.612 385.719 176.923C385.719 178.233 388.133 179.681 391.611 179.681C395.088 179.681 397.503 178.226 397.503 176.923C397.503 175.619 395.082 174.164 391.611 174.164Z" fill="#F3F3F3"></path><path d="M391.696 175.871L336.886 207.1L337.647 208.436L392.456 177.207L391.696 175.871Z" fill="#F3F3F3"></path><path d="M420.113 175.058C415.941 175.058 412.677 173.155 412.677 170.72C412.677 168.286 415.941 166.383 420.113 166.383C424.285 166.383 427.549 168.286 427.549 170.72C427.549 173.155 424.278 175.058 420.113 175.058ZM420.113 167.962C416.641 167.962 414.218 169.417 414.218 170.72C414.218 172.024 416.641 173.479 420.113 173.479C423.585 173.479 426.008 172.024 426.008 170.72C426.008 169.417 423.585 167.941 420.113 167.941V167.962Z" fill="#F3F3F3"></path><path d="M419.159 169.437L364.354 200.676L365.116 202.012L419.92 170.774L419.159 169.437Z" fill="#F3F3F3"></path><path d="M480.959 192.408C476.864 192.408 473.643 194.266 473.643 196.624C473.671 197.12 473.814 197.602 474.063 198.032C474.311 198.461 474.657 198.825 475.072 199.094L426.309 227.017L427.069 228.349L476.593 200C477.978 200.569 479.463 200.85 480.959 200.826C485.053 200.826 488.275 198.961 488.275 196.644C488.275 194.326 485.053 192.408 480.959 192.408ZM480.959 199.281C480.081 199.281 479.207 199.178 478.353 198.974C477.707 198.823 477.084 198.586 476.501 198.268C475.647 197.782 475.178 197.203 475.178 196.624C475.178 195.338 477.546 193.96 480.972 193.96C484.399 193.96 486.767 195.365 486.767 196.624C486.767 197.882 484.359 199.281 480.959 199.281Z" fill="#F3F3F3"></path><path d="M470.921 418.215C469.406 418.18 467.899 418.444 466.486 418.99L421.362 392.496V377.997L464.062 353.327V327.635L337.845 254.375L337.077 255.711L462.559 328.544V352.472L419.859 377.135V393.405L465.004 419.959C464.593 420.236 464.252 420.605 464.007 421.036C463.763 421.468 463.622 421.95 463.595 422.445C463.595 424.803 466.84 426.641 470.98 426.641C475.121 426.641 478.36 424.803 478.36 422.445C478.36 420.086 475.054 418.215 470.921 418.215ZM470.921 425.084C467.455 425.084 465.064 423.708 465.064 422.411C465.064 421.83 465.558 421.249 466.399 420.754C466.99 420.44 467.618 420.204 468.269 420.053C469.133 419.846 470.019 419.742 470.907 419.745C474.34 419.745 476.757 421.155 476.757 422.418C476.757 423.681 474.353 425.117 470.921 425.117V425.084Z" fill="#F3F3F3"></path><path d="M458.566 376.111C457.015 376.072 455.475 376.375 454.055 376.999C454.022 376.999 373.753 333.69 373.753 333.69L373.018 335.026L452.456 377.893C452.072 378.172 451.756 378.535 451.534 378.954C451.311 379.372 451.187 379.836 451.171 380.31C451.171 382.667 454.423 384.503 458.566 384.503C462.708 384.503 465.967 382.667 465.967 380.31C465.967 377.954 462.715 376.111 458.566 376.111ZM458.566 382.967C455.099 382.967 452.703 381.559 452.703 380.297C452.703 379.743 453.179 379.182 453.995 378.701C454.575 378.356 455.208 378.108 455.869 377.967C456.742 377.739 457.642 377.627 458.545 377.633C461.985 377.633 464.408 379.042 464.408 380.304C464.408 381.565 462.005 382.967 458.566 382.967Z" fill="#DCDFF5"></path><path d="M266.02 405.572L459.771 287.959L458.949 286.597L265.197 404.209L266.02 405.572Z" fill="#BFCBF2"></path><g style="mix-blend-mode:multiply"><path d="M323.383 192.698C318.815 190.064 313.631 188.681 308.357 188.689C303.082 188.698 297.903 190.096 293.342 192.744L122.689 291.879C120.419 293.197 118.536 295.088 117.228 297.362C115.92 299.636 115.234 302.214 115.238 304.836C115.242 307.459 115.937 310.035 117.251 312.305C118.566 314.575 120.455 316.46 122.729 317.771L260.191 397.395L245.321 416.725H287.369C302.264 416.719 316.898 412.814 329.812 405.4L484.712 315.519C487.303 314.019 489.454 311.864 490.95 309.272C492.445 306.68 493.232 303.741 493.232 300.749C493.232 297.757 492.445 294.818 490.95 292.226C489.454 289.634 487.303 287.48 484.712 285.979L323.383 192.698Z" fill="#EAEFFC"></path></g><path d="M420.681 271.821L263.957 181.254V413.007L453.942 303.212C456.477 301.766 458.583 299.671 460.043 297.142C461.502 294.613 462.264 291.74 462.249 288.819V247.938L420.681 271.821Z" fill="#F3F3F3"></path><path d="M100.246 257.001L98.1252 247.934H33.4436V288.816C33.4268 291.738 34.1826 294.612 35.6334 297.143C37.0842 299.673 39.1777 301.769 41.6988 303.216L230.496 413.007V181.254L100.246 257.001Z" fill="#F3F3F3"></path><path d="M230.496 181.967V412.3C235.583 415.199 241.353 416.726 247.227 416.726C253.1 416.726 258.871 415.199 263.958 412.3V181.961C258.87 179.061 253.1 177.535 247.226 177.536C241.352 177.537 235.582 179.066 230.496 181.967V181.967Z" fill="#DCE4FB"></path><path d="M132.59 360.956V342.661L137.547 339.888V358.176L132.59 360.956Z" fill="#3C3B95"></path><path d="M132.706 342.366L126.393 338.11L131.227 334.93L137.546 339.192L132.706 342.366Z" fill="#A1B7F6"></path><path d="M126.393 357.181V338.648L132.589 342.418V360.956L126.393 357.181Z" fill="#DCE4FB"></path><path d="M149.94 370.87V352.575L154.898 349.802V368.09L149.94 370.87Z" fill="#3C3B95"></path><path d="M150.062 352.282L143.743 348.729L148.584 346.085L154.897 349.637L150.062 352.282Z" fill="#A1B7F6"></path><path d="M143.743 367.096V348.562L149.94 352.337V370.87L143.743 367.096Z" fill="#DCE4FB"></path><path d="M167.29 380.784V362.496L172.247 359.716V378.004L167.29 380.784Z" fill="#3C3B95"></path><path d="M167.409 362.196L161.094 358.647L165.932 355.999L172.248 359.548L167.409 362.196Z" fill="#A1B7F6"></path><path d="M161.094 377.01V358.478L167.29 362.253V380.785L161.094 377.01Z" fill="#DCE4FB"></path><path d="M184.642 390.699V372.411L189.599 369.631V387.926L184.642 390.699Z" fill="#3C3B95"></path><path d="M184.219 372.11L177.205 368.561L182.577 365.913L189.598 369.462L184.219 372.11Z" fill="#A1B7F6"></path><path d="M177.205 386.924V368.392L184.641 372.167V390.699L177.205 386.924Z" fill="#DCE4FB"></path><path d="M201.991 400.614V382.319L206.949 379.546V397.834L201.991 400.614Z" fill="#3C3B95"></path><path d="M201.577 382.024L194.556 378.471L199.927 375.827L206.949 379.379L201.577 382.024Z" fill="#A1B7F6"></path><path d="M194.556 396.839V378.306L201.992 382.08V400.613L194.556 396.839Z" fill="#DCE4FB"></path><path d="M431.266 321.298V303.009L426.309 300.229V318.524L431.266 321.298Z" fill="#F3F3F3"></path><path d="M431.143 302.707L437.463 298.449L432.628 295.271L426.309 299.53L431.143 302.707Z" fill="#A1B7F6"></path><path d="M437.463 317.522V298.99L431.267 302.766V321.298L437.463 317.522Z" fill="#3C3B95"></path><path d="M413.915 331.212V312.924L408.958 310.144V328.432L413.915 331.212Z" fill="#F3F3F3"></path><path d="M413.793 312.621L420.112 308.363L415.271 305.186L408.958 309.444L413.793 312.621Z" fill="#A1B7F6"></path><path d="M420.112 327.437V308.904L413.915 312.68V331.212L420.112 327.437Z" fill="#3C3B95"></path><path d="M396.566 341.127V322.839L391.608 320.059V338.354L396.566 341.127Z" fill="#F3F3F3"></path><path d="M396.449 322.537L402.762 318.274L397.928 315.101L391.608 319.356L396.449 322.537Z" fill="#A1B7F6"></path><path d="M402.762 337.358V318.819L396.565 322.595V341.127L402.762 337.358Z" fill="#3C3B95"></path><path d="M379.215 351.041V332.753L374.258 329.973V348.261L379.215 351.041Z" fill="#F3F3F3"></path><path d="M379.099 332.452L385.412 328.193L380.577 325.016L374.258 329.274L379.099 332.452Z" fill="#A1B7F6"></path><path d="M385.411 347.266V328.733L379.215 332.509V351.041L385.411 347.266Z" fill="#3C3B95"></path><path d="M361.864 360.956V342.661L356.906 339.888V358.176L361.864 360.956Z" fill="#F3F3F3"></path><path d="M362.278 342.366L369.299 338.11L363.921 334.93L356.906 339.192L362.278 342.366Z" fill="#A1B7F6"></path><path d="M369.299 357.181V338.648L361.863 342.418V360.956L369.299 357.181Z" fill="#3C3B95"></path><path d="M345.753 370.87V352.575L339.557 349.802V368.09L345.753 370.87Z" fill="#F3F3F3"></path><path d="M344.936 352.282L351.95 348.729L346.578 346.085L339.557 349.637L344.936 352.282Z" fill="#A1B7F6"></path><path d="M351.95 367.096V348.562L345.753 352.337V370.87L351.95 367.096Z" fill="#3C3B95"></path><path d="M328.403 380.784V362.496L323.445 359.716V378.004L328.403 380.784Z" fill="#F3F3F3"></path><path d="M328.28 362.196L334.599 358.647L329.765 355.999L323.445 359.548L328.28 362.196Z" fill="#A1B7F6"></path><path d="M334.598 377.01V358.478L328.401 362.253V380.785L334.598 377.01Z" fill="#3C3B95"></path><path d="M311.052 390.699V372.411L306.095 369.631V387.926L311.052 390.699Z" fill="#F3F3F3"></path><path d="M310.929 372.11L317.249 368.561L312.408 365.913L306.095 369.462L310.929 372.11Z" fill="#A1B7F6"></path><path d="M317.248 386.924V368.392L311.052 372.167V390.699L317.248 386.924Z" fill="#3C3B95"></path><path d="M293.701 400.614V382.319L288.744 379.546V397.834L293.701 400.614Z" fill="#F3F3F3"></path><path d="M293.579 382.024L299.898 378.471L295.057 375.827L288.744 379.379L293.579 382.024Z" fill="#A1B7F6"></path><path d="M299.899 396.839V378.306L293.702 382.08V400.613L299.899 396.839Z" fill="#3C3B95"></path><path d="M264.421 129.929L453.957 239.393C456.478 240.847 458.572 242.939 460.027 245.458C461.483 247.978 462.249 250.837 462.249 253.748C462.249 256.658 461.483 259.517 460.027 262.037C458.572 264.557 456.478 266.649 453.957 268.102L264.421 377.579C259.383 380.491 253.668 382.024 247.849 382.024C242.031 382.024 236.315 380.491 231.278 377.579L41.7344 268.115C39.2139 266.661 37.1206 264.569 35.6651 262.048C34.2097 259.528 33.4434 256.668 33.4434 253.758C33.4434 250.847 34.2097 247.988 35.6651 245.467C37.1206 242.947 39.2139 240.854 41.7344 239.4L231.278 129.929C236.315 127.017 242.031 125.484 247.849 125.484C253.668 125.484 259.383 127.017 264.421 129.929V129.929Z" fill="#283583"></path><path d="M264.418 124.944L453.957 233.887C456.478 235.333 458.572 237.415 460.027 239.923C461.483 242.431 462.249 245.276 462.249 248.172C462.249 251.069 461.483 253.914 460.027 256.422C458.572 258.93 456.478 261.011 453.957 262.458L264.418 371.407C259.38 374.303 253.664 375.828 247.846 375.828C242.028 375.828 236.313 374.303 231.274 371.407L41.7354 262.464C39.2146 261.018 37.1211 258.936 35.6655 256.428C34.2098 253.921 33.4434 251.075 33.4434 248.179C33.4434 245.283 34.2098 242.437 35.6655 239.93C37.1211 237.422 39.2146 235.34 41.7354 233.894L231.281 124.944C236.319 122.051 242.033 120.527 247.85 120.527C253.666 120.527 259.38 122.051 264.418 124.944V124.944Z" fill="#E7E0F9"></path><path d="M261.364 148.949L415.843 238.333C417.895 239.522 419.599 241.231 420.783 243.287C421.967 245.344 422.591 247.677 422.591 250.051C422.591 252.426 421.967 254.759 420.783 256.815C419.599 258.872 417.895 260.581 415.843 261.769L261.357 351.134C257.25 353.509 252.591 354.759 247.849 354.759C243.107 354.759 238.449 353.509 234.342 351.134L79.8556 261.729C77.8022 260.542 76.0969 258.834 74.9113 256.777C73.7257 254.72 73.1016 252.387 73.1016 250.011C73.1016 247.636 73.7257 245.303 74.9113 243.246C76.0969 241.189 77.8022 239.481 79.8556 238.293L234.349 148.929C238.457 146.557 243.117 145.31 247.859 145.313C252.601 145.317 257.259 146.571 261.364 148.949V148.949Z" fill="#BA1663"></path><path d="M260.783 148.793L408.693 234.463C410.658 235.602 412.29 237.24 413.424 239.212C414.558 241.185 415.155 243.421 415.155 245.698C415.155 247.975 414.558 250.211 413.424 252.183C412.29 254.155 410.658 255.793 408.693 256.933L260.783 342.61C256.851 344.886 252.39 346.084 247.85 346.084C243.309 346.084 238.849 344.886 234.916 342.61L87.0063 256.94C85.0397 255.801 83.4066 254.162 82.2712 252.19C81.1358 250.217 80.5381 247.979 80.5381 245.701C80.5381 243.423 81.1358 241.186 82.2712 239.213C83.4066 237.24 85.0397 235.602 87.0063 234.463L234.916 148.793C238.848 146.514 243.309 145.313 247.85 145.313C252.391 145.313 256.852 146.514 260.783 148.793V148.793Z" fill="#283583"></path><path d="M260.378 174.776C256.401 172.524 251.889 171.339 247.296 171.339C242.703 171.339 238.191 172.524 234.214 174.776V337.689C238.19 339.941 242.701 341.126 247.293 341.126C251.885 341.126 256.396 339.941 260.372 337.689L261.479 337.066V175.399L260.378 174.776Z" fill="#D7E0FA"></path><path d="M133.456 233.268L131.821 226.304H81.7765V241.968C81.7676 244.213 82.3539 246.419 83.4757 248.363C84.5976 250.307 86.2149 251.918 88.1622 253.032L234.213 337.409V175.058L133.456 233.268Z" fill="#F3F3F3"></path><path d="M380.794 245.278L261.479 176.297V337.409L406.297 253.645C408.241 252.531 409.856 250.921 410.977 248.979C412.097 247.036 412.684 244.831 412.676 242.587V226.923L380.794 245.278Z" fill="#F3F3F3"></path><path d="M260.02 135.105L406.281 219.722C408.225 220.847 409.84 222.465 410.962 224.413C412.085 226.361 412.676 228.571 412.676 230.821C412.676 233.07 412.085 235.28 410.962 237.229C409.84 239.177 408.225 240.795 406.281 241.92L260.013 326.537C256.126 328.788 251.716 329.972 247.226 329.972C242.737 329.972 238.327 328.788 234.439 326.537L88.1716 241.92C86.2273 240.796 84.6126 239.178 83.4899 237.231C82.3673 235.283 81.7764 233.073 81.7764 230.824C81.7764 228.575 82.3673 226.365 83.4899 224.418C84.6126 222.47 86.2273 220.853 88.1716 219.729L234.459 135.111C238.345 132.865 242.753 131.682 247.239 131.681C251.725 131.679 256.133 132.86 260.02 135.105V135.105Z" fill="#283583"></path><path d="M260.02 131.372L406.281 215.466C408.225 216.584 409.84 218.192 410.962 220.128C412.085 222.064 412.676 224.261 412.676 226.496C412.676 228.732 412.085 230.929 410.962 232.865C409.84 234.801 408.225 236.409 406.281 237.527L260.013 321.607C256.125 323.841 251.715 325.016 247.226 325.016C242.737 325.016 238.327 323.841 234.439 321.607L88.1708 237.507C86.2267 236.389 84.6122 234.781 83.4898 232.845C82.3673 230.909 81.7764 228.712 81.7764 226.476C81.7764 224.241 82.3673 222.044 83.4898 220.108C84.6122 218.172 86.2267 216.564 88.1708 215.446L234.459 131.372C238.345 129.139 242.753 127.964 247.239 127.964C251.726 127.964 256.134 129.139 260.02 131.372Z" fill="#283583"></path><path d="M256.564 157.576L356.27 215.21C357.594 215.976 358.694 217.079 359.458 218.405C360.223 219.732 360.625 221.237 360.625 222.769C360.625 224.301 360.223 225.805 359.458 227.132C358.694 228.459 357.594 229.561 356.27 230.328L256.564 287.975C253.914 289.508 250.907 290.315 247.847 290.315C244.786 290.315 241.78 289.508 239.13 287.975L139.424 230.335C138.1 229.568 137 228.466 136.235 227.139C135.471 225.812 135.068 224.307 135.068 222.775C135.068 221.244 135.471 219.739 136.235 218.412C137 217.085 138.1 215.983 139.424 215.216L239.103 157.576C241.756 156.038 244.768 155.229 247.833 155.229C250.899 155.229 253.91 156.038 256.564 157.576V157.576Z" fill="#1E0068"></path><path d="M254.108 173.772L329.698 217.29C330.702 217.869 331.536 218.701 332.115 219.703C332.695 220.705 333 221.841 333 222.998C333 224.155 332.695 225.291 332.115 226.293C331.536 227.294 330.702 228.127 329.698 228.706L254.108 272.233C252.099 273.391 249.82 274 247.5 274C245.18 274 242.901 273.391 240.892 272.233L165.302 228.711C164.298 228.132 163.464 227.299 162.885 226.298C162.305 225.296 162 224.159 162 223.003C162 221.846 162.305 220.71 162.885 219.708C163.464 218.706 164.298 217.874 165.302 217.295L240.871 173.772C242.883 172.611 245.166 172 247.49 172C249.814 172 252.097 172.611 254.108 173.772V173.772Z" fill="#BA1663"></path><path d="M169.768 189.317C169.786 189.776 169.641 190.225 169.364 190.57C169.086 190.916 168.697 191.13 168.278 191.169C167.751 191.169 167.283 191.169 166.815 191.169C163.204 190.998 159.791 189.316 157.283 186.471L157.164 186.276C156.664 185.533 156.333 184.669 156.202 183.758C156.07 182.846 156.14 181.913 156.406 181.038C156.499 180.687 156.615 180.345 156.756 180.015C158.509 182.854 162.636 188.546 168.041 187.652C168.466 187.646 168.879 187.813 169.198 188.12C169.517 188.428 169.72 188.854 169.768 189.317V189.317Z" fill="#283583"></path><path d="M217.016 16.2733C216.496 15.7534 215.833 15.3994 215.112 15.256C214.39 15.1126 213.642 15.1862 212.963 15.4677C212.283 15.7491 211.702 16.2256 211.294 16.837C210.885 17.4484 210.667 18.1673 210.667 18.9026C210.667 19.6379 210.885 20.3567 211.294 20.9681C211.702 21.5795 212.283 22.056 212.963 22.3374C213.642 22.6189 214.39 22.6925 215.112 22.5491C215.833 22.4057 216.496 22.0517 217.016 21.5318C217.712 20.8336 218.103 19.8882 218.103 18.9026C218.103 17.9169 217.712 16.9714 217.016 16.2733V16.2733Z" fill="#283583"></path><path d="M93.6818 93.5288C93.4172 93.2641 93.0802 93.0839 92.7134 93.0109C92.3465 92.938 91.9662 92.9755 91.6206 93.1187C91.275 93.2619 90.9797 93.5045 90.7718 93.8157C90.564 94.1269 90.4531 94.4928 90.4531 94.867C90.4531 95.2413 90.564 95.6072 90.7718 95.9184C90.9797 96.2296 91.275 96.4721 91.6206 96.6154C91.9662 96.7586 92.3465 96.7961 92.7134 96.7231C93.0802 96.6501 93.4172 96.4699 93.6818 96.2053C94.0357 95.85 94.2345 95.3687 94.2345 94.867C94.2345 94.3654 94.0357 93.8841 93.6818 93.5288V93.5288Z" fill="#BE4B80"></path><path d="M161.24 124.093C160.72 123.574 160.057 123.22 159.337 123.077C158.616 122.934 157.869 123.008 157.19 123.289C156.511 123.571 155.931 124.047 155.523 124.659C155.114 125.27 154.896 125.989 154.896 126.724C154.896 127.459 155.114 128.178 155.523 128.789C155.931 129.4 156.511 129.877 157.19 130.158C157.869 130.44 158.616 130.514 159.337 130.371C160.057 130.228 160.72 129.874 161.24 129.354C161.586 129.01 161.861 128.6 162.048 128.148C162.236 127.697 162.332 127.213 162.332 126.724C162.332 126.235 162.236 125.751 162.048 125.3C161.861 124.848 161.586 124.438 161.24 124.093V124.093Z" fill="#283583"></path><path d="M183.554 42.2997C183.034 41.7798 182.371 41.4257 181.65 41.2823C180.928 41.1389 180.18 41.2126 179.501 41.494C178.821 41.7754 178.24 42.252 177.832 42.8634C177.423 43.4748 177.205 44.1936 177.205 44.9289C177.205 45.6643 177.423 46.3831 177.832 46.9945C178.24 47.6059 178.821 48.0824 179.501 48.3638C180.18 48.6452 180.928 48.7189 181.65 48.5755C182.371 48.4321 183.034 48.078 183.554 47.5581C184.25 46.86 184.641 45.9146 184.641 44.9289C184.641 43.9433 184.25 42.9978 183.554 42.2997Z" fill="#BE4B80"></path><path d="M270.306 94.3514C269.786 93.8315 269.123 93.4775 268.402 93.3341C267.68 93.1907 266.932 93.2644 266.253 93.5458C265.573 93.8272 264.992 94.3037 264.584 94.9151C264.175 95.5265 263.957 96.2453 263.957 96.9806C263.957 97.7159 264.175 98.4347 264.584 99.0461C264.992 99.6575 265.573 100.134 266.253 100.416C266.932 100.697 267.68 100.771 268.402 100.627C269.123 100.484 269.786 100.13 270.306 99.6099C271.002 98.9118 271.393 97.9663 271.393 96.9806C271.393 95.995 271.002 95.0495 270.306 94.3514V94.3514Z" fill="#BE4B80"></path><path d="M339.706 68.5065C339.186 67.9 338.524 67.4869 337.802 67.3196C337.081 67.1523 336.334 67.2383 335.654 67.5666C334.975 67.8949 334.394 68.4508 333.986 69.1642C333.577 69.8775 333.359 70.716 333.359 71.5739C333.359 72.4318 333.577 73.2705 333.986 73.9838C334.394 74.6971 334.975 75.253 335.654 75.5813C336.334 75.9097 337.081 75.9956 337.802 75.8283C338.524 75.661 339.186 75.2479 339.706 74.6414C340.051 74.2386 340.325 73.7604 340.512 73.2341C340.699 72.7077 340.795 72.1436 340.795 71.5739C340.795 71.0042 340.699 70.4402 340.512 69.9139C340.325 69.3876 340.051 68.9093 339.706 68.5065Z" fill="#283583"></path><path d="M442.752 100.367C442.319 99.9335 441.767 99.6382 441.166 99.5186C440.565 99.3989 439.942 99.4603 439.376 99.6948C438.81 99.9292 438.325 100.326 437.985 100.836C437.644 101.345 437.463 101.944 437.463 102.557C437.463 103.17 437.644 103.769 437.985 104.279C438.325 104.788 438.81 105.185 439.376 105.42C439.942 105.654 440.565 105.716 441.166 105.596C441.767 105.476 442.319 105.181 442.752 104.748C443.333 104.167 443.66 103.379 443.66 102.557C443.66 101.736 443.333 100.948 442.752 100.367V100.367Z" fill="#283583"></path><path d="M413.009 84.2589C412.577 83.8245 412.025 83.5284 411.424 83.408C410.823 83.2876 410.2 83.3483 409.633 83.5825C409.067 83.8167 408.582 84.2137 408.242 84.7235C407.901 85.2332 407.719 85.8327 407.719 86.446C407.719 87.0592 407.901 87.6587 408.242 88.1684C408.582 88.6782 409.067 89.0753 409.633 89.3095C410.2 89.5437 410.823 89.6044 411.424 89.4839C412.025 89.3635 412.577 89.0674 413.009 88.633C413.297 88.3459 413.525 88.005 413.68 87.6297C413.836 87.2544 413.915 86.8522 413.915 86.446C413.915 86.0397 413.836 85.6375 413.68 85.2622C413.525 84.8869 413.297 84.546 413.009 84.2589V84.2589Z" fill="#BE4B80"></path><path d="M436.55 45.8352C436.117 45.4022 435.565 45.1074 434.965 44.988C434.365 44.8687 433.742 44.9303 433.177 45.1648C432.612 45.3994 432.128 45.7965 431.788 46.306C431.448 46.8154 431.267 47.4144 431.267 48.027C431.267 48.6397 431.448 49.2386 431.788 49.748C432.128 50.2575 432.612 50.6546 433.177 50.8892C433.742 51.1238 434.365 51.1853 434.965 51.066C435.565 50.9467 436.117 50.6519 436.55 50.2188C436.839 49.932 437.069 49.5906 437.226 49.2144C437.382 48.8382 437.463 48.4346 437.463 48.027C437.463 47.6194 437.382 47.2158 437.226 46.8396C437.069 46.4634 436.839 46.122 436.55 45.8352Z" fill="#BE4B80"></path><path d="M386.983 363.102C386.55 362.669 385.997 362.374 385.396 362.254C384.795 362.134 384.172 362.196 383.606 362.43C383.04 362.665 382.556 363.062 382.215 363.571C381.875 364.081 381.693 364.68 381.693 365.293C381.693 365.905 381.875 366.505 382.215 367.014C382.556 367.524 383.04 367.921 383.606 368.155C384.172 368.39 384.795 368.451 385.396 368.331C385.997 368.212 386.55 367.916 386.983 367.483C387.564 366.902 387.89 366.114 387.89 365.293C387.89 364.471 387.564 363.683 386.983 363.102V363.102Z" fill="#283583"></path><path d="M401.855 381.692C401.422 381.259 400.87 380.963 400.269 380.844C399.668 380.724 399.045 380.785 398.478 381.02C397.912 381.254 397.428 381.651 397.088 382.161C396.747 382.671 396.565 383.27 396.565 383.882C396.565 384.495 396.747 385.094 397.088 385.604C397.428 386.114 397.912 386.511 398.478 386.745C399.045 386.979 399.668 387.041 400.269 386.921C400.87 386.802 401.422 386.506 401.855 386.073C402.436 385.492 402.762 384.704 402.762 383.882C402.762 383.061 402.436 382.273 401.855 381.692V381.692Z" fill="#BE4B80"></path><path d="M74.8634 60.353C74.5989 60.0884 74.2619 59.9082 73.895 59.8352C73.5281 59.7622 73.1478 59.7997 72.8023 59.9429C72.4567 60.0862 72.1613 60.3287 71.9535 60.6399C71.7457 60.9511 71.6348 61.3169 71.6348 61.6912C71.6348 62.0655 71.7457 62.4313 71.9535 62.7425C72.1613 63.0537 72.4567 63.2963 72.8023 63.4396C73.1478 63.5828 73.5281 63.6203 73.895 63.5473C74.2619 63.4743 74.5989 63.2941 74.8634 63.0295C75.2174 62.6741 75.4162 62.1929 75.4162 61.6912C75.4162 61.1895 75.2174 60.7083 74.8634 60.353V60.353Z" fill="#283583"></path><g style="mix-blend-mode:multiply"><path d="M392.376 415.58C390.865 414.706 389.15 414.246 387.405 414.246C385.659 414.246 383.944 414.706 382.432 415.58L325.915 448.452C325.164 448.888 324.54 449.514 324.107 450.267C323.673 451.02 323.445 451.874 323.445 452.743C323.445 453.611 323.673 454.465 324.107 455.218C324.54 455.971 325.164 456.597 325.915 457.034L371.44 483.433L366.512 489.845H380.436C385.369 489.845 390.216 488.55 394.493 486.091L445.795 456.292C446.653 455.795 447.366 455.081 447.861 454.222C448.356 453.363 448.617 452.389 448.617 451.397C448.617 450.405 448.356 449.431 447.861 448.572C447.366 447.712 446.653 446.999 445.795 446.502L392.376 415.58Z" fill="#EAEFFC"></path></g><path d="M405.355 441.081L375.857 424.275C372.863 422.577 369.467 421.683 366.011 421.683C362.555 421.683 359.159 422.577 356.165 424.275L340.971 432.309L339.706 427.041H301.138V450.866C301.128 452.57 301.579 454.246 302.445 455.721C303.311 457.197 304.56 458.419 306.064 459.263L355.281 487.25C358.276 488.95 361.673 489.845 365.131 489.845C368.588 489.845 371.985 488.95 374.98 487.25L425.101 459.375C426.604 458.532 427.853 457.31 428.719 455.836C429.584 454.362 430.036 452.688 430.027 450.985V427.16L405.355 441.081Z" fill="#F3F3F3"></path><path d="M375.885 393.346L425.104 421.859C426.601 422.726 427.844 423.973 428.708 425.474C429.572 426.975 430.027 428.678 430.027 430.411C430.027 432.145 429.572 433.847 428.708 435.348C427.844 436.85 426.601 438.096 425.104 438.964L374.981 467.369C371.986 469.103 368.589 470.016 365.131 470.016C361.673 470.016 358.276 469.103 355.281 467.369L306.062 438.85C304.565 437.983 303.322 436.737 302.457 435.237C301.593 433.736 301.138 432.033 301.138 430.301C301.138 428.568 301.593 426.865 302.457 425.365C303.322 423.864 304.565 422.618 306.062 421.751L356.185 393.346C359.179 391.612 362.577 390.699 366.035 390.699C369.493 390.699 372.89 391.612 375.885 393.346V393.346Z" fill="#283583"></path><path d="M375.884 389.628L425.103 418.147C426.601 419.013 427.844 420.259 428.708 421.76C429.573 423.26 430.027 424.963 430.027 426.696C430.027 428.428 429.573 430.131 428.708 431.631C427.844 433.132 426.601 434.378 425.103 435.244L374.98 463.656C371.985 465.387 368.588 466.298 365.13 466.298C361.673 466.298 358.276 465.387 355.28 463.656L306.061 435.137C304.564 434.27 303.321 433.023 302.457 431.522C301.593 430.021 301.138 428.318 301.138 426.585C301.138 424.852 301.593 423.149 302.457 421.648C303.321 420.147 304.564 418.9 306.061 418.033L356.184 389.628C359.179 387.894 362.576 386.981 366.034 386.981C369.492 386.981 372.889 387.894 375.884 389.628V389.628Z" fill="#E8EEFC"></path><path d="M372.39 400.034L407.887 420.535C408.966 421.159 409.862 422.055 410.486 423.134C411.109 424.213 411.437 425.437 411.437 426.682C411.437 427.928 411.109 429.152 410.486 430.231C409.862 431.31 408.966 432.206 407.887 432.829L371.739 453.243C369.58 454.489 367.13 455.146 364.636 455.146C362.142 455.146 359.693 454.489 357.534 453.243L322.037 432.749C320.958 432.125 320.062 431.229 319.439 430.15C318.815 429.071 318.487 427.847 318.487 426.602C318.487 425.356 318.815 424.132 319.439 423.053C320.062 421.974 320.958 421.078 322.037 420.455L358.185 400.034C360.345 398.791 362.795 398.137 365.288 398.137C367.781 398.137 370.23 398.791 372.39 400.034Z" fill="#1E0068"></path><g style="mix-blend-mode:multiply"><path d="M439.894 142.626C438.727 141.951 437.401 141.596 436.051 141.596C434.702 141.596 433.376 141.951 432.209 142.626L388.562 167.96C387.981 168.296 387.498 168.778 387.163 169.359C386.827 169.94 386.65 170.598 386.65 171.268C386.65 171.938 386.827 172.597 387.163 173.177C387.498 173.758 387.981 174.24 388.562 174.576L423.719 194.912L419.914 199.844H430.668C434.478 199.845 438.221 198.847 441.522 196.95L481.142 174.002C481.804 173.618 482.353 173.067 482.735 172.405C483.117 171.743 483.318 170.993 483.318 170.229C483.318 169.465 483.117 168.715 482.735 168.053C482.353 167.391 481.804 166.841 481.142 166.457L439.894 142.626Z" fill="#EAEFFC"></path></g><path d="M452.44 162.636L430.322 149.778C428.075 148.477 425.527 147.793 422.932 147.793C420.338 147.793 417.79 148.477 415.543 149.778L404.153 155.916L403.201 151.855H374.258V170.059C374.25 171.361 374.587 172.642 375.236 173.769C375.885 174.897 376.823 175.831 377.951 176.475L414.868 197.86C417.113 199.16 419.661 199.845 422.254 199.845C424.847 199.845 427.395 199.16 429.64 197.86L467.232 176.563C468.359 175.917 469.295 174.983 469.944 173.856C470.592 172.728 470.931 171.449 470.925 170.147V151.943L452.44 162.636Z" fill="#F3F3F3"></path><path d="M430.317 127.427L467.204 148.359C468.334 148.992 469.274 149.908 469.927 151.013C470.581 152.118 470.925 153.374 470.925 154.651C470.925 155.929 470.581 157.184 469.927 158.29C469.274 159.395 468.334 160.311 467.204 160.944L429.636 181.79C427.392 183.063 424.845 183.733 422.254 183.733C419.662 183.733 417.116 183.063 414.872 181.79L377.979 160.858C376.848 160.224 375.909 159.309 375.255 158.203C374.602 157.098 374.258 155.843 374.258 154.565C374.258 153.288 374.602 152.032 375.255 150.927C375.909 149.822 376.848 148.906 377.979 148.273L415.547 127.427C417.792 126.154 420.34 125.484 422.932 125.484C425.525 125.484 428.072 126.154 430.317 127.427Z" fill="#283583"></path><path d="M430.317 124.942L467.204 145.874C468.334 146.507 469.274 147.423 469.927 148.528C470.581 149.633 470.925 150.889 470.925 152.166C470.925 153.444 470.581 154.699 469.927 155.805C469.274 156.91 468.334 157.825 467.204 158.459L429.636 179.311C427.392 180.584 424.845 181.254 422.254 181.254C419.662 181.254 417.116 180.584 414.872 179.311L377.979 158.38C376.848 157.746 375.909 156.83 375.255 155.725C374.602 154.62 374.258 153.365 374.258 152.087C374.258 150.809 374.602 149.554 375.255 148.449C375.909 147.344 376.848 146.428 377.979 145.794L415.547 124.949C417.793 123.677 420.339 123.007 422.931 123.006C425.523 123.005 428.07 123.672 430.317 124.942V124.942Z" fill="#E8EEFC"></path><path d="M428.137 131.889L454.644 147.482C455.449 147.957 456.118 148.639 456.583 149.459C457.047 150.28 457.292 151.211 457.292 152.158C457.292 153.105 457.047 154.036 456.583 154.856C456.118 155.677 455.449 156.359 454.644 156.834L427.657 172.372C426.045 173.32 424.216 173.819 422.355 173.819C420.493 173.819 418.664 173.32 417.052 172.372L390.538 156.772C389.732 156.297 389.064 155.615 388.599 154.795C388.134 153.974 387.89 153.043 387.89 152.096C387.89 151.149 388.134 150.218 388.599 149.398C389.064 148.577 389.732 147.895 390.538 147.42L417.524 131.889C419.137 130.941 420.967 130.442 422.83 130.442C424.693 130.442 426.523 130.941 428.137 131.889V131.889Z" fill="#1E0068"></path><path d="M248.507 243.084L246.512 244.236C246.473 244.269 246.425 244.297 246.369 244.319C246.332 244.345 246.29 244.369 246.246 244.39C246.048 244.46 245.822 244.498 245.59 244.501C245.358 244.499 245.131 244.461 244.934 244.39C244.887 244.37 244.845 244.346 244.811 244.319L239.481 241.242L238.374 241.881L243.841 245.037C243.939 245.087 244.046 245.131 244.162 245.167C244.605 245.329 245.12 245.412 245.645 245.408C246.157 245.394 246.651 245.296 247.073 245.128C247.183 245.088 247.288 245.043 247.387 244.994C247.476 244.942 247.578 244.883 247.633 244.852L252.792 241.873L251.698 241.242L248.507 243.084Z" fill="white"></path><path d="M283.185 221.7L283.547 221.909C283.619 221.958 283.683 222.011 283.738 222.067C283.834 222.188 283.876 222.32 283.861 222.453C283.842 222.583 283.759 222.708 283.622 222.812C283.586 222.836 283.548 222.859 283.506 222.879L278.231 225.924L279.331 226.559L284.627 223.502C284.724 223.454 284.816 223.401 284.9 223.345C285.2 223.104 285.379 222.82 285.419 222.524C285.458 222.23 285.362 221.934 285.139 221.668C285.024 221.536 284.879 221.412 284.709 221.301L279.57 218.335L278.463 218.974L283.185 221.7V221.7Z" fill="white"></path><path d="M243.315 199.993L238.314 202.88L239.421 203.52L244.422 200.632C244.545 200.561 244.696 200.474 244.757 200.439C244.926 200.355 245.132 200.302 245.352 200.285C245.575 200.264 245.805 200.279 246.014 200.328C246.12 200.35 246.219 200.38 246.308 200.419L251.228 203.259L252.342 202.616L247.559 199.855L247.292 199.701C246.783 199.482 246.161 199.368 245.526 199.378C244.891 199.388 244.281 199.521 243.794 199.756C243.625 199.829 243.466 199.908 243.315 199.993V199.993Z" fill="white"></path><path d="M207.969 223.081L207.6 222.868C207.527 222.819 207.463 222.766 207.408 222.71C207.301 222.592 207.256 222.459 207.279 222.327C207.293 222.195 207.371 222.068 207.504 221.96C207.542 221.935 207.583 221.911 207.627 221.889L212.902 218.844L211.781 218.197L206.472 221.262C206.377 221.31 206.288 221.361 206.206 221.416C205.91 221.664 205.736 221.952 205.7 222.252C205.678 222.474 205.733 222.696 205.861 222.905C205.988 223.114 206.187 223.307 206.445 223.471L211.556 226.422L212.656 225.787L207.969 223.081Z" fill="white"></path><path d="M257.595 228.624L266.928 223.236C267.106 223.148 267.26 223.046 267.386 222.932C267.511 222.79 267.587 222.637 267.612 222.478C267.633 222.317 267.594 222.154 267.496 222.002C267.398 221.851 267.244 221.713 267.044 221.599L247.038 210.049C246.869 209.935 246.662 209.843 246.43 209.776C246.197 209.71 245.944 209.671 245.685 209.662C245.407 209.65 245.127 209.672 244.865 209.728C244.603 209.784 244.366 209.872 244.168 209.986L224.189 221.52C224.014 221.616 223.865 221.726 223.745 221.847C223.61 221.986 223.533 222.142 223.519 222.301C223.498 222.462 223.537 222.623 223.633 222.774C223.73 222.925 223.882 223.063 224.08 223.177L244.072 234.718C244.237 234.817 244.423 234.904 244.626 234.975C244.872 235.05 245.141 235.096 245.419 235.109C245.695 235.12 245.972 235.097 246.231 235.042C246.49 234.986 246.726 234.898 246.922 234.785L257.595 228.624Z" fill="#BA1662" stroke="white" stroke-width="5.89148" stroke-linecap="round" stroke-linejoin="round"></path><path d="M250.406 224.892L254.158 222.726C254.234 222.695 254.301 222.656 254.356 222.612C254.438 222.526 254.469 222.427 254.445 222.33C254.42 222.233 254.341 222.144 254.219 222.075L246.156 217.421C246.104 217.373 246.034 217.333 245.951 217.302C245.853 217.271 245.743 217.254 245.63 217.251C245.519 217.247 245.407 217.257 245.302 217.279C245.198 217.302 245.102 217.336 245.022 217.381L236.959 222.036C236.883 222.068 236.816 222.106 236.761 222.15C236.707 222.206 236.674 222.268 236.666 222.332C236.657 222.396 236.672 222.461 236.711 222.522C236.75 222.582 236.812 222.637 236.891 222.683L244.961 227.341C245.018 227.384 245.085 227.423 245.159 227.456C245.259 227.489 245.371 227.508 245.487 227.511C245.598 227.515 245.71 227.505 245.815 227.483C245.919 227.461 246.015 227.426 246.095 227.381L250.406 224.892Z" fill="#DB4992"></path><g style="mix-blend-mode:screen"><path d="M256.345 223.523L257.8 222.683C257.83 222.669 257.858 222.653 257.882 222.635C257.9 222.614 257.911 222.591 257.916 222.568C257.919 222.543 257.913 222.517 257.898 222.494C257.883 222.47 257.859 222.448 257.828 222.43L254.616 220.576C254.578 220.565 254.536 220.56 254.493 220.56C254.451 220.557 254.408 220.56 254.367 220.568C254.327 220.576 254.29 220.59 254.261 220.608L251.131 222.414C251.102 222.429 251.074 222.444 251.049 222.462C251.03 222.484 251.021 222.508 251.022 222.533C251.017 222.558 251.022 222.584 251.038 222.608C251.053 222.632 251.078 222.653 251.111 222.671L254.316 224.521C254.354 224.532 254.396 224.537 254.439 224.537C254.481 224.54 254.524 224.537 254.565 224.529C254.605 224.521 254.641 224.507 254.671 224.489L256.345 223.523Z" fill="#DB4992"></path></g><path d="M258.921 202.564L257.814 201.925L250.039 206.414L251.146 207.053L258.921 202.564Z" fill="white"></path><path d="M264.469 205.768L263.362 205.129L255.587 209.618L256.693 210.257L264.469 205.768Z" fill="white"></path><path d="M270.01 208.967L268.903 208.328L261.128 212.817L262.234 213.456L270.01 208.967Z" fill="white"></path><path d="M275.559 212.169L274.452 211.53L266.676 216.019L267.783 216.658L275.559 212.169Z" fill="white"></path><path d="M280.985 215.302L279.878 214.663L272.102 219.152L273.209 219.791L280.985 215.302Z" fill="white"></path><path d="M219.058 225.641L217.951 225.002L210.175 229.491L211.282 230.13L219.058 225.641Z" fill="white"></path><path d="M224.606 228.843L223.499 228.204L215.723 232.693L216.83 233.332L224.606 228.843Z" fill="white"></path><path d="M230.148 232.042L229.041 231.403L221.265 235.892L222.372 236.531L230.148 232.042Z" fill="white"></path><path d="M235.696 235.246L234.589 234.607L226.813 239.096L227.92 239.735L235.696 235.246Z" fill="white"></path><path d="M241.122 238.377L240.015 237.738L232.239 242.227L233.346 242.866L241.122 238.377Z" fill="white"></path><path d="M219.092 219.231L211.31 214.738L210.203 215.377L217.985 219.87L219.092 219.231Z" fill="white"></path><path d="M224.641 216.028L216.858 211.535L215.751 212.174L223.534 216.667L224.641 216.028Z" fill="white"></path><path d="M230.181 212.829L222.398 208.336L221.292 208.975L229.074 213.468L230.181 212.829Z" fill="white"></path><path d="M235.73 209.626L227.947 205.133L226.84 205.772L234.623 210.265L235.73 209.626Z" fill="white"></path><path d="M241.156 206.494L233.373 202.001L232.266 202.64L240.049 207.133L241.156 206.494Z" fill="white"></path><path d="M259.071 242.239L251.288 237.746L250.181 238.385L257.964 242.878L259.071 242.239Z" fill="white"></path><path d="M264.613 239.04L256.83 234.547L255.723 235.186L263.506 239.679L264.613 239.04Z" fill="white"></path><path d="M270.154 235.841L262.371 231.348L261.257 231.991L269.04 236.484L270.154 235.841Z" fill="white"></path><path d="M275.702 232.638L267.919 228.146L266.812 228.785L274.595 233.277L275.702 232.638Z" fill="white"></path><path d="M281.127 229.506L273.345 225.013L272.238 225.652L280.02 230.145L281.127 229.506Z" fill="white"></path><path d="M298.291 217.65L253.974 192.065C249.302 189.368 241.727 189.368 237.056 192.065L192.738 217.65C188.066 220.347 188.066 224.719 192.738 227.416L237.056 253.001C241.727 255.698 249.302 255.698 253.974 253.001L298.291 227.416C302.963 224.719 302.963 220.347 298.291 217.65Z" stroke="white" stroke-width="6.14187" stroke-miterlimit="10"></path><path d="M272.416 195.066L265.795 198.889" stroke="white" stroke-width="5.03721" stroke-linecap="round" stroke-linejoin="round"></path><path d="M293.104 207.011L286.483 210.833" stroke="white" stroke-width="5.03721" stroke-linecap="round" stroke-linejoin="round"></path><path d="M262.071 189.095L255.45 192.917" stroke="white" stroke-width="5.03721" stroke-linecap="round" stroke-linejoin="round"></path><path d="M282.76 201.038L276.139 204.86" stroke="white" stroke-width="5.03721" stroke-linecap="round" stroke-linejoin="round"></path><path d="M303.45 212.982L296.829 216.805" stroke="white" stroke-width="5.03721" stroke-linecap="round" stroke-linejoin="round"></path><path d="M204.559 234.24L197.938 238.063" stroke="white" stroke-width="5.03721" stroke-linecap="round" stroke-linejoin="round"></path><path d="M225.249 246.184L218.628 250.006" stroke="white" stroke-width="5.03721" stroke-linecap="round" stroke-linejoin="round"></path><path d="M194.214 228.269L187.593 232.091" stroke="white" stroke-width="5.03721" stroke-linecap="round" stroke-linejoin="round"></path><path d="M214.903 240.213L208.282 244.035" stroke="white" stroke-width="5.03721" stroke-linecap="round" stroke-linejoin="round"></path><path d="M235.594 252.156L228.973 255.979" stroke="white" stroke-width="5.03721" stroke-linecap="round" stroke-linejoin="round"></path><path d="M197.938 207.011L204.559 210.833" stroke="white" stroke-width="5.03721" stroke-linecap="round" stroke-linejoin="round"></path><path d="M218.627 195.066L225.248 198.889" stroke="white" stroke-width="5.03721" stroke-linecap="round" stroke-linejoin="round"></path><path d="M187.593 212.982L194.214 216.805" stroke="white" stroke-width="5.03721" stroke-linecap="round" stroke-linejoin="round"></path><path d="M208.283 201.038L214.904 204.86" stroke="white" stroke-width="5.03721" stroke-linecap="round" stroke-linejoin="round"></path><path d="M228.972 189.095L235.593 192.917" stroke="white" stroke-width="5.03721" stroke-linecap="round" stroke-linejoin="round"></path><path d="M265.795 246.184L272.416 250.006" stroke="white" stroke-width="5.03721" stroke-linecap="round" stroke-linejoin="round"></path><path d="M286.484 234.24L293.105 238.063" stroke="white" stroke-width="5.03721" stroke-linecap="round" stroke-linejoin="round"></path><path d="M255.449 252.156L262.07 255.979" stroke="white" stroke-width="5.03721" stroke-linecap="round" stroke-linejoin="round"></path><path d="M276.139 240.213L282.76 244.035" stroke="white" stroke-width="5.03721" stroke-linecap="round" stroke-linejoin="round"></path><path d="M296.83 228.268L303.451 232.09" stroke="white" stroke-width="5.03721" stroke-linecap="round" stroke-linejoin="round"></path></svg>